Patient4_TMGait_0pt7_02_right_04_GRF.mot
version=1
nRows=59
nColumns=19
inDegrees=no
endheader
time	F1x	F1y	F1z	M1x	M1y	M1z	F2x	F2y	F2z	M2x	M2y	M2z	EC1x	EC1y	EC1z	EC2x	EC2y	EC2z
3.59	19.6784	750.0444	77.7715	-249.1739	-71.1625	762.0968	22.6845	5.2433	3.1683	-0.0035989	-4.2635	5.2133	-0.0592	0.0182	-0.0073	-0.0462	0.0165	0.9585
3.6019	17.6584	743.9957	74.0257	-246.557	-67.3662	749.5404	15.0778	4.7039	2.36	0.36253	-2.8448	4.862	-0.0592	0.0182	-0.0073	-0.0462	0.0165	0.9585
3.6139	16.637	737.419	70.4265	-243.7856	-63.3681	736.4056	8.6533	4.2266	1.522	0.72166	-1.5666	4.5466	-0.0592	0.0182	-0.0073	-0.0462	0.0165	0.9585
3.6258	16.6969	730.9438	67.2159	-241.1017	-59.422	723.6066	3.7452	3.8756	0.7806	1.0368	-0.53134	4.3326	-0.0592	0.0182	-0.0073	-0.0462	0.0165	0.9585
3.6377	17.6985	725.1825	64.5493	-238.7246	-55.7493	711.8628	0.35682	3.649	0.19166	1.2883	0.23009	4.1968	-0.0592	0.0182	-0.0073	-0.0462	0.0165	0.9585
3.6496	19.4748	720.5599	62.4858	-236.8049	-52.4794	701.593	-1.7544	3.5516	-0.2343	1.4777	0.74425	4.1664	-0.0592	0.0182	-0.0073	-0.0462	0.0165	0.9585
3.6616	21.838	717.2842	61.0329	-235.4183	-49.6822	692.9535	-2.8738	3.5107	-0.51551	1.598	1.0521	4.1667	-0.0592	0.0182	-0.0073	-0.0462	0.0165	0.9585
3.6735	24.648	715.3741	60.1394	-234.5768	-47.3531	685.8553	-3.3144	3.4792	-0.68641	1.6482	1.2138	4.1612	-0.0592	0.0182	-0.0073	-0.0462	0.0165	0.9585
3.6854	27.7987	714.7253	59.7088	-234.249	-45.4249	680.0995	-3.321	3.3559	-0.78728	1.611	1.2849	4.032	-0.0592	0.0182	-0.0073	-0.0462	0.0165	0.9585
3.6974	31.2388	715.2062	59.654	-234.3855	-43.8205	675.4586	-3.1048	3.0366	-0.85499	1.4621	1.3197	3.6618	-0.0592	0.0182	-0.0073	-0.0462	0.0165	0.9585
3.7093	34.9059	716.675	59.8933	-234.9258	-42.46	671.72	-2.7907	2.388	-0.92285	1.1622	1.353	2.8883	-0.0592	0.0182	-0.0073	-0.0462	0.0165	0.9585
3.7212	38.789	719.0332	60.3864	-235.8127	-41.2859	668.7399	-2.468	1.281	-0.99989	0.66933	1.3979	1.5709	-0.0592	0.0182	-0.0073	-0.0462	0.0165	0.9585
3.7331	42.8553	722.2115	61.126	-236.9896	-40.2704	666.4368	-2.1616	-0.39091	-1.0858	-0.052641	1.4475	-0.41194	-0.0592	0.0182	-0.0073	-0.0462	0.0165	0.9585
3.7451	47.0851	726.1555	62.1482	-238.4004	-39.4268	664.7732	-1.8668	-2.6557	-1.1549	-1.0096	1.461	-3.0958	-0.0592	0.0182	-0.0073	-0.0462	0.0165	0.9585
3.757	51.4451	730.8307	63.5102	-239.9936	-38.7934	663.7561	-1.5585	-5.414	-1.1604	-2.1555	1.3748	-6.3632	-0.0592	0.0182	-0.0073	-0.0462	0.0165	0.9585
3.7689	55.9044	736.1652	65.2448	-241.7121	-38.4009	663.365	-1.2006	-8.3551	-1.0317	-3.3569	1.0953	-9.8499	-0.0592	0.0182	-0.0073	-0.0462	0.0165	0.9585
3.7809	60.3636	742.0042	67.3498	-243.4811	-38.2783	663.5234	-0.75944	-10.8307	-0.67738	-4.3446	0.5082	-12.7879	-0.0592	0.0182	-0.0073	-0.0462	0.0165	0.9585
3.7928	64.686	748.0486	69.7286	-245.1901	-38.3971	664.0553	-0.21149	-11.7823	0.0064134	-4.6767	-0.51014	-13.9262	-0.0592	0.0182	-0.0073	-0.0462	0.0165	0.9585
3.8047	68.6446	753.7655	72.2311	-246.6608	-38.7152	664.6018	0.4313	-9.6204	1.1271	-3.6974	-2.0755	-11.3792	-0.0592	0.0182	-0.0073	-0.0462	0.0165	0.9585
3.8166	71.9707	758.2995	74.6423	-247.6183	-39.1558	664.5378	1.1355	-2.2187	2.7709	-0.53107	-4.2644	-2.6277	-0.0592	0.0182	-0.0073	-0.0462	0.0165	0.9585
3.8286	74.3779	760.4362	76.7399	-247.6823	-39.647	662.9387	1.7623	12.9956	4.9606	5.8742	-7.038	15.3838	-0.0592	0.0182	-0.0073	-0.0462	0.0165	0.9585
3.8405	75.6434	758.6946	78.2597	-246.4043	-40.0643	658.6105	2.1162	38.7427	7.5831	16.6212	-10.1633	45.8615	-0.0592	0.0182	-0.0073	-0.0462	0.0165	0.9585
3.8524	75.6793	751.5247	78.9259	-243.3359	-40.2284	650.2253	1.8438	77.3115	10.33	32.6206	-13.1112	91.5148	-0.0592	0.0182	-0.0073	-0.0462	0.0165	0.9585
3.8644	74.5555	737.4972	78.4123	-238.089	-39.8605	636.4995	0.36326	129.7228	12.5993	54.2402	-14.9154	153.5286	-0.0592	0.0182	-0.0073	-0.0462	0.0165	0.9585
3.8763	72.4294	715.3501	76.4455	-230.3388	-38.6939	616.2369	-3.3919	194.5414	13.5606	80.8161	-14.1477	230.184	-0.0592	0.0182	-0.0073	-0.0462	0.0165	0.9585
3.8882	69.4537	683.9935	72.8131	-219.8024	-36.5098	588.3825	-10.5886	266.6383	12.0328	110.1549	-8.9827	315.3621	-0.0592	0.0182	-0.0073	-0.0462	0.0165	0.9585
3.9001	65.6753	642.5365	67.5028	-206.2287	-33.2908	552.0836	-20.836	337.8661	6.7124	138.8623	1.7764	399.3002	-0.0592	0.0182	-0.0073	-0.0462	0.0165	0.9585
3.9121	60.992	590.6572	60.6856	-189.5127	-29.2202	507.0238	-32.0114	401.8024	-2.3403	164.3086	17.0882	474.0763	-0.0592	0.0182	-0.0073	-0.0462	0.0165	0.9585
3.924	55.2296	529.121	52.7758	-169.8539	-24.6947	453.8788	-42.448	456.8031	-13.9283	185.8343	34.8317	537.4625	-0.0592	0.0182	-0.0073	-0.0462	0.0165	0.9585
3.9359	48.3289	459.9038	44.3449	-147.8167	-20.1864	394.3489	-51.0041	504.5241	-26.7589	204.1692	53.0427	591.1941	-0.0592	0.0182	-0.0073	-0.0462	0.0165	0.9585
3.9479	40.3464	386.0511	36.0009	-124.3018	-16.1389	331.0409	-57.0737	547.5623	-39.2858	220.4554	69.7132	638.3252	-0.0592	0.0182	-0.0073	-0.0462	0.0165	0.9585
3.9598	31.535	311.319	28.2653	-100.4531	-12.8635	267.1224	-60.3689	587.5647	-50.3062	235.4477	83.369	680.8692	-0.0592	0.0182	-0.0073	-0.0462	0.0165	0.9585
3.9717	22.3296	239.7279	21.5036	-77.5288	-10.4879	205.9865	-61.0134	624.7553	-59.1154	249.2877	93.2758	719.2518	-0.0592	0.0182	-0.0073	-0.0462	0.0165	0.9585
3.9836	13.4389	175.0397	15.8968	-56.7365	-8.917	150.7657	-59.391	658.2717	-65.654	261.6371	99.548	752.6874	-0.0592	0.0182	-0.0073	-0.0462	0.0165	0.9585
3.9956	5.7	120.0434	11.4463	-38.9924	-7.8682	103.7887	-56.067	686.8068	-70.2919	271.9459	102.8606	779.9454	-0.0592	0.0182	-0.0073	-0.0462	0.0165	0.9585
4.0075	-0.17709	76.02	8.0227	-24.7428	-7.0038	66.1052	-51.6512	709.1832	-73.5081	279.7184	104.0395	799.9524	-0.0592	0.0182	-0.0073	-0.0462	0.0165	0.9585
4.0194	-3.9405	42.9141	5.3856	-13.9994	-6.0472	37.6885	-46.7359	724.7643	-75.7255	284.6947	103.8366	812.2347	-0.0592	0.0182	-0.0073	-0.0462	0.0165	0.9585
4.0314	-5.6837	19.6602	3.3518	-6.4403	-4.8978	17.6472	-41.8499	733.6056	-77.1377	286.922	102.7249	817.0404	-0.0592	0.0182	-0.0073	-0.0462	0.0165	0.9585
4.0433	-5.8655	4.7006	1.8192	-1.5687	-3.6425	4.701	-37.3777	736.5429	-77.7145	286.7879	100.8728	815.4179	-0.0592	0.0182	-0.0073	-0.0462	0.0165	0.9585
4.0552	-5.1324	-3.7359	0.74638	1.1843	-2.4716	-2.648	-33.5399	735.1546	-77.2401	284.9873	98.1818	809.1746	-0.0592	0.0182	-0.0073	-0.0462	0.0165	0.9585
4.0671	-4.0184	-7.4743	0.10608	2.411	-1.546	-5.9237	-30.3776	731.407	-75.619	282.3607	94.5987	800.471	-0.0592	0.0182	-0.0073	-0.0462	0.0165	0.9585
4.0791	-2.8431	-8.1503	-0.23205	2.6407	-0.86003	-6.5474	-27.8843	727.2175	-73.0003	279.7033	90.2912	791.3843	-0.0592	0.0182	-0.0073	-0.0462	0.0165	0.9585
4.091	-1.8162	-7.0957	-0.33879	2.3069	-0.42462	-5.6559	-25.9655	724.1235	-69.8011	277.6252	85.6709	783.53	-0.0592	0.0182	-0.0073	-0.0462	0.0165	0.9585
4.1029	-0.99313	-5.2615	-0.32921	1.7149	-0.15694	-4.0826	-24.5264	723.12	-66.5212	276.4958	81.2222	777.9403	-0.0592	0.0182	-0.0073	-0.0462	0.0165	0.9585
4.1149	-0.40383	-3.2705	-0.23929	1.0674	-0.03615	-2.3501	-23.469	724.6757	-63.5406	276.4714	77.2956	775.0713	-0.0592	0.0182	-0.0073	-0.0462	0.0165	0.9585
4.1268	-0.011964	-1.4922	-0.13989	0.48204	0.012883	-0.79438	-22.7113	728.9106	-61.0368	277.5684	74.034	775.0367	-0.0592	0.0182	-0.0073	-0.0462	0.0165	0.9585
4.1387	0.22268	-0.064839	-0.042548	0.0077209	0.012157	0.46087	-22.1352	735.5869	-59.0321	279.6724	71.4087	777.5619	-0.0592	0.0182	-0.0073	-0.0462	0.0165	0.9585
4.1506	0.34027	0.97205	0.031777	-0.34246	-0.0073874	1.3618	-21.6318	744.1797	-57.4675	282.5576	69.3041	782.0857	-0.0592	0.0182	-0.0073	-0.0462	0.0165	0.9585
4.1626	0.37752	1.6663	0.082449	-0.58067	-0.032823	1.9506	-21.0886	753.8812	-56.3052	285.8896	67.6187	787.7446	-0.0592	0.0182	-0.0073	-0.0462	0.0165	0.9585
4.1745	0.36652	2.0953	0.12296	-0.73082	-0.061781	2.294	-20.4279	763.6815	-55.5202	289.2595	66.2738	793.483	-0.0592	0.0182	-0.0073	-0.0462	0.0165	0.9585
4.1864	0.32751	2.3289	0.14338	-0.81777	-0.077149	2.4568	-19.5625	772.5104	-55.108	292.2418	65.2151	798.1958	-0.0592	0.0182	-0.0073	-0.0462	0.0165	0.9585
4.1984	0.27053	2.4507	0.16662	-0.86745	-0.09863	2.5274	-18.4255	779.3831	-55.013	294.4524	64.3528	800.8796	-0.0592	0.0182	-0.0073	-0.0462	0.0165	0.9585
4.2103	0.21974	2.5044	0.17527	-0.89415	-0.10808	2.5432	-16.9637	783.5091	-55.1515	295.5925	63.5821	800.7314	-0.0592	0.0182	-0.0073	-0.0462	0.0165	0.9585
4.2222	0.16222	2.536	0.19118	-0.90871	-0.13457	2.5531	-15.1352	784.4245	-55.4103	295.4937	62.7787	797.2863	-0.0592	0.0182	-0.0073	-0.0462	0.0165	0.9585
4.2341	0.10696	2.5403	0.20432	-0.90678	-0.17594	2.5393	-12.9072	782.0089	-55.706	294.1257	61.8537	790.437	-0.0592	0.0182	-0.0073	-0.0462	0.0165	0.9585
4.2461	0.026485	2.4774	0.23935	-0.87161	-0.26398	2.4739	-10.279	776.4652	-55.9649	291.5848	60.7403	780.4055	-0.0592	0.0182	-0.0073	-0.0462	0.0165	0.9585
4.258	-0.074796	2.2713	0.29463	-0.78092	-0.3951	2.2586	-7.2616	768.3267	-56.1363	288.0907	59.3997	767.7492	-0.0592	0.0182	-0.0073	-0.0462	0.0165	0.9585
4.2699	-0.21993	1.8404	0.38249	-0.60874	-0.58582	1.8073	-3.8931	758.4316	-56.1737	283.9763	57.8043	753.324	-0.0592	0.0182	-0.0073	-0.0462	0.0165	0.9585
4.2819	-0.37841	1.0993	0.50224	-0.32482	-0.82514	0.98424	-0.22364	747.8827	-56.0675	279.6649	55.9653	738.237	-0.0592	0.0182	-0.0073	-0.0462	0.0165	0.9585
